<svg id="bankIcon" class="mainIcon" xmlns="http://www.w3.org/2000/svg" viewBox="0 0 264.29 341.93"><defs><style>.cls-1,.cls-2{stroke:#000;stroke-miterlimit:10;}.cls-2{fill:#fff;}
	#details {
		display: block;
	}
	@media screen and (max-width: 150px) {

		#details {
			display: none;
		}

	}

	</style></defs><title>bankIcon</title><g id="icon"><path id="pin" class="cls-1" d="M263.6,151.1c-1.3,19.1-10.7,46.1-28.1,67.3-18.8,21-106.1,122.8-106.1,122.8S50.7,248.6,34.7,229.9,6.6,184.3,2.6,163.1C-9,92.9,28,7.2,119.7,1.3,179.2-5.5,268.9,32.7,263.6,151.1Z" transform="translate(-0.03 -0.04)"/><ellipse id="whiteBg" class="cls-2" cx="132.07" cy="136.86" rx="104.1" ry="109.8"/><path id="dollarsign" d="M122.1,210.9V192.7c-12.1-.2-24.6-3.4-31.9-7.9l5-12.1a61.84,61.84,0,0,0,30,7.8c14.8,0,24.8-7.4,24.8-17.7,0-9.9-8.1-16-23.6-21.5C105.1,134.1,92,125.8,92,110.1c0-15,12.3-26.3,31.5-29V62.9h12.9V80.4c12.5.4,21.1,3.3,27.1,6.3l-5.2,11.9a56.68,56.68,0,0,0-26.2-6.1C116,92.5,110,100.8,110,108c0,9.4,7.7,14.1,25.9,20.6,21.5,7.6,32.3,17,32.3,33,0,14.3-11.5,27.6-33,30.7V211Z" transform="translate(-0.03 -0.04)"/></g><g id="details"><rect id="stick" x="123.57" y="69.46" width="12" height="141"/></g></svg>