<?xml version="1.0" encoding="utf-8"?>
<!-- Generator: Adobe Illustrator 22.0.1, SVG Export Plug-In . SVG Version: 6.00 Build 0)  -->
<svg version="1.1" id="beerIcon" xmlns="http://www.w3.org/2000/svg" xmlns:xlink="http://www.w3.org/1999/xlink" x="0px" y="0px"
	 viewBox="0 0 264.3 342" style="enable-background:new 0 0 264.3 342;" xml:space="preserve">
<style type="text/css">
	.st0{stroke:#000000;stroke-miterlimit:10;}
	.st1{fill:#FFFFFF;stroke:#000000;stroke-miterlimit:10;}
	.st2{fill:none;stroke:#000000;stroke-width:10;stroke-miterlimit:10;}
	.st3{fill:none;stroke:#000000;stroke-width:3;stroke-miterlimit:10;}
	.st4{fill:#FFFFFF;stroke:#000000;stroke-width:3;stroke-miterlimit:10;}
		#details {
		display: block;
	}
	@media screen and (max-width: 150px) {

		#details {
			display: none;
		}

	}
</style>
<g id="icon">
	<path id="pin" class="st0" d="M263.6,151.1c-1.3,19.1-10.7,46.1-28.1,67.3c-18.8,21-106.1,122.8-106.1,122.8s-78.7-92.6-94.7-111.3
		S6.6,184.3,2.6,163.1C-9,92.9,28,7.2,119.7,1.3C179.2-5.5,268.9,32.7,263.6,151.1z"/>
	<ellipse id="whiteBg" class="st1" cx="132.1" cy="136.9" rx="104.1" ry="109.8"/>
	<path id="beerglass" d="M91.6,84.3h68.1c3.3,0,6,2.7,6,6v100.2c0,6.6-5.4,12-12,12H97.6c-6.6,0-12-5.4-12-12V90.3
		C85.6,87,88.3,84.3,91.6,84.3z"/>
	<path id="handlebottom" class="st2" d="M187.6,141.5c0,15.8-10.8,28.6-24.2,28.6"/>
	<path id="handletop" class="st2" d="M160.5,115.7c15,0,27.2,11.8,27.2,26.4"/>
</g>
<g id="details">
	<circle id="bubble2" class="st3" cx="126.1" cy="71" r="19"/>
	<ellipse id="bubble2-2" class="st4" cx="103.6" cy="81.5" rx="17.5" ry="16.5"/>
	<circle id="bubble1" class="st4" cx="147.1" cy="81" r="19"/>
</g>
</svg>
