<?xml version="1.0" encoding="utf-8"?>
<!-- Generator: Adobe Illustrator 22.0.1, SVG Export Plug-In . SVG Version: 6.00 Build 0)  -->
<svg version="1.1" id="cameraIcon" xmlns="http://www.w3.org/2000/svg" xmlns:xlink="http://www.w3.org/1999/xlink" x="0px" y="0px"
	 viewBox="0 0 264.3 342" style="enable-background:new 0 0 264.3 342;" xml:space="preserve">
<style type="text/css">
	.st0{stroke:#000000;stroke-miterlimit:10;}
	.st1{fill:#FFFFFF;stroke:#000000;stroke-miterlimit:10;}
	.st2{fill:#FFFFFF;}
		#details {
		display: block;
	}
	@media screen and (max-width: 150px) {

		#details {
			display: none;
		}

	}
	
</style>
<g id="icon">
	<path id="pin" class="st0" d="M263.6,151.1c-1.3,19.1-10.7,46.1-28.1,67.3c-18.8,21-106.1,122.8-106.1,122.8s-78.7-92.6-94.7-111.3
		S6.6,184.3,2.6,163.1C-9,92.9,28,7.2,119.7,1.3C179.2-5.5,268.9,32.7,263.6,151.1z"/>
	<ellipse id="whiteBg" class="st1" cx="132.1" cy="136.9" rx="104.1" ry="109.8"/>
	<path id="body" d="M199.7,97.4v82.1c0,2.8-2.2,5-5,5h-126c-2.8,0-5-2.2-5-5V97.4c0-2.8,2.2-5,5-5h126
		C197.5,92.4,199.7,94.7,199.7,97.4z"/>
	<circle id="whitecircle" class="st2" cx="108.6" cy="138.5" r="29"/>
	<circle id="lense" cx="108.6" cy="138.5" r="20"/>
</g>
<g id="details">
	<rect id="button" x="169.6" y="88.2" width="22" height="7.3"/>
	<path id="flash" class="st2" d="M162.6,103.5h24c1.1,0,2,0.9,2,2v8c0,1.1-0.9,2-2,2h-24c-1.1,0-2-0.9-2-2v-8
		C160.6,104.4,161.5,103.5,162.6,103.5z"/>
</g>
</svg>
