<svg id="coffeeIcon" xmlns="http://www.w3.org/2000/svg" viewBox="0 0 264.31 341.97"><defs><style>.cls-1,.cls-2,.cls-3{stroke:#000;stroke-miterlimit:10;}.cls-2{fill:#fff;}.cls-3{fill:none;stroke-width:5px;}
	#details {
		display: block;
	}
	@media screen and (max-width: 150px) {

		#details {
			display: none;
		}

	}
	
</style></defs><title>coffeeIcon</title><path id="pin" class="cls-1" d="M888.94,332.58c-1.34,19.13-10.7,46.06-28.1,67.31-18.75,21-106.06,122.83-106.06,122.83s-78.66-92.64-94.72-111.29-28.12-45.57-32.13-66.83c-11.61-70.16,25.41-155.9,117.12-161.83C804.6,176,894.28,214.24,888.94,332.58Z" transform="translate(-625.36 -181.51)"/><ellipse id="whiteBg" class="cls-2" cx="135.15" cy="133.86" rx="104.06" ry="109.84"/><path id="cup" d="M679,319c0,38.66,30.67,70,68.5,70S816,357.66,816,319Z" transform="translate(-625.36 -181.51)"/><rect id="base" x="87.64" y="189.49" width="70" height="18"/><ellipse id="handle" class="cls-3" cx="184.14" cy="167.49" rx="20" ry="15.5"/><g id="smallersteam"><path id="wave6" class="cls-3" d="M794,272c-11.88,0-21.5,12.52-21.5,28" transform="translate(-625.36 -181.51)"/><path id="wave5" class="cls-3" d="M793.5,272c11.88,0,21.5-12.52,21.5-28" transform="translate(-625.36 -181.51)"/></g><g id="biggest_steam" data-name="biggest steam"><path id="wave8" class="cls-3" d="M759.65,263c-14.91,0-27,16.55-27,37" transform="translate(-625.36 -181.51)"/><path id="wave7" class="cls-3" d="M759,263c14.91,0,27-16.55,27-37" transform="translate(-625.36 -181.51)"/></g><g id="details"><g id="smalleststeam"><path id="wave4" class="cls-3" d="M813.87,287.51c-5.69-.66-11,4.81-11.86,12.22" transform="translate(-625.36 -181.51)"/><path id="wave3" class="cls-3" d="M813.63,287.48c5.69.66,11-4.81,11.86-12.22" transform="translate(-625.36 -181.51)"/></g></g><g id="steammedium"><path id="wave2" class="cls-3" d="M715.75,266.5c-12,.21-21.48,15.36-21.15,33.88" transform="translate(-625.36 -181.51)"/><path id="wave1" class="cls-3" d="M715.25,266.5c12-.21,21.48-15.36,21.15-33.88" transform="translate(-625.36 -181.51)"/></g></svg>