<svg id="forkknifeIcon"  class="mainIcon" xmlns="http://www.w3.org/2000/svg" viewBox="0 0 264.31 341.97"><defs><style>.cls-1,.cls-2{stroke:#000;stroke-miterlimit:10;}.cls-2,.cls-3{fill:#fff;}
	#details {
		display: block;
	}
	@media screen and (max-width: 150px) {

		#details {
			display: none;
		}

	}
	</style></defs><title>forkknifeIcon</title><path id="pin" class="cls-1" d="M888.94,332.58c-1.34,19.13-10.7,46.06-28.1,67.31-18.75,21-106.06,122.83-106.06,122.83s-78.66-92.64-94.72-111.29-28.12-45.57-32.13-66.83c-11.61-70.16,25.41-155.9,117.12-161.83C804.6,176,894.28,214.24,888.94,332.58Z" transform="translate(-625.36 -181.51)"/><ellipse id="whiteBg" class="cls-2" cx="132.15" cy="133.86" rx="104.06" ry="109.84"/><g id="fork"><rect id="forkhandle" x="108" y="111.86" width="11.49" height="120.19"/><path id="forkface" d="M96.36,44.08h34.76a1,1,0,0,1,1,1v55.38a16,16,0,0,1-16,16h-4.76a16,16,0,0,1-16-16V45.08a1,1,0,0,1,1-1Z"/><rect id="forkdeet" class="cls-3" x="102.64" y="39.49" width="7" height="58"/><rect id="forkdeet2" class="cls-3" x="117.64" y="39.49" width="7" height="58"/></g><g id="details"><rect id="blackcover" x="99.14" y="44.14" width="29" height="56.35"/><rect id="forkline1" class="cls-3" x="101.11" y="39.49" width="4.6" height="55.82"/><rect id="forkline3" class="cls-3" x="121.79" y="39.49" width="4.6" height="55.82"/><rect id="forkline2" class="cls-3" x="111.45" y="39.49" width="4.6" height="55.82"/></g><g id="knife"><path id="knifeblade" d="M768.42,278.76c0,29.09.9,52.67,12.18,52.67s8.58-9.88,8.58-52.67c0-21.95-1.81-41.7-8.58-52.68S768.42,249.67,768.42,278.76Z" transform="translate(-625.36 -181.51)"/><rect id="knifehandle" x="153.4" y="112.99" width="10.34" height="117.5"/></g></svg>