<svg id="gasIcon" xmlns="http://www.w3.org/2000/svg" viewBox="0 0 264.31 341.97"><defs><style>.cls-1,.cls-2,.cls-4,.cls-5,.cls-6{stroke:#000;stroke-miterlimit:10;}.cls-2,.cls-3{fill:#fff;}.cls-4,.cls-6{fill:none;}.cls-4{stroke-width:9px;}.cls-5{stroke-width:4px;}.cls-6{stroke-width:7px;}
	#details {
		display: block;
	}
	@media screen and (max-width: 150px) {

		#details {
			display: none;
		}

	}
	</style></defs><title>gasIcon</title><path id="pin" class="cls-1" d="M888.94,332.58c-1.34,19.13-10.7,46.06-28.1,67.31-18.75,21-106.06,122.83-106.06,122.83s-78.66-92.64-94.72-111.29-28.12-45.57-32.13-66.83c-11.61-70.16,25.41-155.9,117.12-161.83C804.6,176,894.28,214.24,888.94,332.58Z" transform="translate(-625.36 -181.51)"/><ellipse id="whiteBg" class="cls-2" cx="132.15" cy="136.86" rx="104.06" ry="109.84"/><rect id="machine" x="72.64" y="84.49" width="62" height="108"/><rect id="bigscreen" class="cls-3" x="82.64" y="93.49" width="42" height="33"/><path id="hose" class="cls-4" d="M750,329s12,44,54,32,0-69,0-69" transform="translate(-625.36 -181.51)"/><rect id="boxhandle" class="cls-5" x="796.96" y="277.46" width="16.34" height="41.11" transform="translate(-678.06 82.2) rotate(-18.02)"/><path id="spout" class="cls-6" d="M788.45,262.63c9,.41,15.94,6.78,15.6,14.24" transform="translate(-625.36 -181.51)"/><g id="details"><rect id="smallscreen" class="cls-3" x="82.64" y="135.49" width="33" height="6"/><rect id="handle" class="cls-3" x="799" y="282" width="3" height="37" transform="translate(-679.05 80.89) rotate(-18.02)"/></g></svg>