<?xml version="1.0" encoding="utf-8"?>
<!-- Generator: Adobe Illustrator 22.0.1, SVG Export Plug-In . SVG Version: 6.00 Build 0)  -->
<svg version="1.1"  class="mainIcon" id="golfIcon" xmlns="http://www.w3.org/2000/svg" xmlns:xlink="http://www.w3.org/1999/xlink" x="0px" y="0px"
	 viewBox="0 0 264.3 342" style="enable-background:new 0 0 264.3 342;" xml:space="preserve">
<style type="text/css">
	.st0{stroke:#000000;stroke-miterlimit:10;}
	.st1{fill:#FFFFFF;stroke:#000000;stroke-miterlimit:10;}
	.st2{fill:#FFFFFF;stroke:#000000;stroke-width:4;stroke-miterlimit:10;}
	.st3{fill:#FFFFFF;stroke:#000000;stroke-width:2;stroke-miterlimit:10;}
	.st4{fill:#FFFFFF;stroke:#000000;stroke-width:3;stroke-miterlimit:10;}
		#details {
		display: block;
	}
	@media screen and (max-width: 150px) {

		#details {
			display: none;
		}

	}
</style>
<path id="pin" class="st0" d="M263.6,151.1c-1.3,19.1-10.7,46.1-28.1,67.3c-18.8,21-106.1,122.8-106.1,122.8s-78.7-92.6-94.7-111.3
	S6.6,184.3,2.6,163.1C-9,92.9,28,7.2,119.7,1.3C179.2-5.5,268.9,32.7,263.6,151.1z"/>
<ellipse id="whiteBg" class="st1" cx="132.1" cy="133.9" rx="104.1" ry="109.8"/>
<g id="club">
	<path id="pole" d="M141.7,205.6L141.7,205.6c-2.3,0.5-4.6-1-5.1-3.3L106,57.9c-0.5-2.3,1-4.6,3.3-5.1l0,0c2.3-0.5,4.6,1,5.1,3.3
		L145,200.5C145.5,202.8,144,205.1,141.7,205.6z"/>
	<path id="handle" d="M123.1,118.5L123.1,118.5c4.1-0.9,6.8-5,5.9-9.1l-12.4-58.7c-0.9-4.1-5-6.8-9.1-5.9l0,0
		c-4.1,0.9-6.8,5-5.9,9.1l12.4,58.7C114.9,116.7,119,119.4,123.1,118.5z"/>
	<path id="face" class="st2" d="M149.3,215.7h11c6.6,0,12-5.4,12-12v-0.3c0-6.6-5.4-12-12-12h-11c-6.6,0-12,5.4-12,12v0.3
		C137.3,210.3,142.7,215.7,149.3,215.7z"/>
	<g id="details">
		<path id="botdetail" class="st1" d="M160.8,208.7h-11.3c-0.3,0-0.5-0.2-0.5-0.5l0,0c0-0.3,0.2-0.5,0.5-0.5h11.3
			c0.3,0,0.5,0.2,0.5,0.5l0,0C161.3,208.4,161.1,208.7,160.8,208.7z"/>
		<path id="middetail" class="st3" d="M165.6,204h-22.5c-0.4,0-0.8-0.3-0.8-0.8l0,0c0-0.4,0.3-0.8,0.8-0.8h22.5
			c0.4,0,0.8,0.3,0.8,0.8l0,0C166.3,203.7,166,204,165.6,204z"/>
		<path id="topdetail" class="st1" d="M159.8,198.7h-11.3c-0.3,0-0.5-0.2-0.5-0.5l0,0c0-0.3,0.2-0.5,0.5-0.5h11.3
			c0.3,0,0.5,0.2,0.5,0.5l0,0C160.3,198.4,160.1,198.7,159.8,198.7z"/>
	</g>
</g>
<circle id="ball" class="st4" cx="109.9" cy="207.7" r="6.7"/>
</svg>
