<svg id="pizzaIcon" xmlns="http://www.w3.org/2000/svg" viewBox="0 0 264.31 341.97"><defs><style>.cls-1,.cls-2,.cls-3,.cls-4{stroke:#000;stroke-miterlimit:10;}.cls-2,.cls-3,.cls-4,.cls-5{fill:#fff;}.cls-3{stroke-width:5px;}.cls-4{stroke-width:3px;}
	#details {
		display: block;
	}
	@media screen and (max-width: 150px) {

		#details {
			display: none;
		}

	}
	</style></defs><title>pizzaIcon</title><path id="pin" class="cls-1" d="M888.94,332.58c-1.34,19.13-10.7,46.06-28.1,67.31-18.75,21-106.06,122.83-106.06,122.83s-78.66-92.64-94.72-111.29-28.12-45.57-32.13-66.83c-11.61-70.16,25.41-155.9,117.12-161.83C804.6,176,894.28,214.24,888.94,332.58Z" transform="translate(-625.36 -181.51)"/><ellipse id="whiteBg" class="cls-2" cx="135.15" cy="133.86" rx="104.06" ry="109.84"/><polygon id="cheese" class="cls-3" points="89.64 176.49 132.64 54.49 177.64 176.49 89.64 176.49"/><g id="details"><circle id="halfpep" class="cls-4" cx="147.14" cy="170.99" r="12"/><circle id="pep3" class="cls-4" cx="113.14" cy="150.99" r="12"/><circle id="pep2" class="cls-4" cx="147.14" cy="136.99" r="12"/><circle id="toppep" class="cls-4" cx="127.14" cy="107.99" r="12"/></g><rect id="crust" x="78.14" y="174.99" width="110.5" height="25.5" rx="12" ry="12"/><rect id="crustwhite" class="cls-5" x="82.64" y="178.49" width="102" height="18" rx="7.5" ry="7.5"/></svg>